HIERARCHY
ROOT root
{
	OFFSET	0	13.1	24.9
	CHANNELS 6  Xposition Yposition Zposition Xrotation Yrotation Zrotation
	JOINT spine_1
	{
		OFFSET	0	9.99999	0
		CHANNELS 3  Xrotation Yrotation Zrotation
		JOINT spine_2
		{
			OFFSET	0	112	-10
			CHANNELS 3  Xrotation Yrotation Zrotation
			JOINT spine_3
			{
				OFFSET	0	206.5	19.3
				CHANNELS 3  Xrotation Yrotation Zrotation
				JOINT spine_4
				{
					OFFSET	0	110.4	14.6
					CHANNELS 3  Xrotation Yrotation Zrotation
					JOINT neck_1
					{
						OFFSET	0	71.8	-50.3
						CHANNELS 3  Xrotation Yrotation Zrotation
						JOINT neck_2
						{
							OFFSET	0	86.2	-25.8
							CHANNELS 3  Xrotation Yrotation Zrotation
							JOINT head_ee
							{
								OFFSET	0	179.8	-8.7
								CHANNELS 3  Xrotation Yrotation Zrotation
								End Site
								{
									OFFSET	1	0	0
								}
							}
						}
					}
					JOINT left_clavicle
					{
						OFFSET	-43.2	22.4	-70.8
						CHANNELS 3  Xrotation Yrotation Zrotation
						JOINT left_shoulder
						{
							OFFSET	-93.9	-5.79999	48.7
							CHANNELS 3  Xrotation Yrotation Zrotation
							JOINT left_elbow
							{
								OFFSET	-291.4	-30.8	15.2
								CHANNELS 3  Xrotation Yrotation Zrotation
								JOINT left_lowarm_twist
								{
									OFFSET	-110.7	-3.89999	13.6
									CHANNELS 3  Xrotation Yrotation Zrotation
									JOINT left_hand
									{
										OFFSET	-110.7	-3.89999	13.6
										CHANNELS 3  Xrotation Yrotation Zrotation
										JOINT left_ee
										{
											OFFSET	-80.8	-5.10001	12.1
											CHANNELS 3  Xrotation Yrotation Zrotation
											End Site
											{
												OFFSET	1	0	0
											}
										}
									}
								}
							}
						}
					}
					JOINT right_clavicle
					{
						OFFSET	43.2	22.4	-70.8
						CHANNELS 3  Xrotation Yrotation Zrotation
						JOINT right_shoulder
						{
							OFFSET	93.9	-5.79999	48.7
							CHANNELS 3  Xrotation Yrotation Zrotation
							JOINT right_elbow
							{
								OFFSET	291.4	-30.8	15.2
								CHANNELS 3  Xrotation Yrotation Zrotation
								JOINT right_lowarm_twist
								{
									OFFSET	110.7	-3.89999	13.6
									CHANNELS 3  Xrotation Yrotation Zrotation
									JOINT right_hand
									{
										OFFSET	110.7	-3.89999	13.6
										CHANNELS 3  Xrotation Yrotation Zrotation
										JOINT right_ee
										{
											OFFSET	80.8	-5.10001	12.1
											CHANNELS 3  Xrotation Yrotation Zrotation
											End Site
											{
												OFFSET	1	0	0
											}
										}
									}
								}
							}
						}
					}
				}
			}
		}
	}
	JOINT left_hip
	{
		OFFSET	-82.8	-127.5	0.300001
		CHANNELS 3  Xrotation Yrotation Zrotation
		JOINT left_knee
		{
			OFFSET	-28.2	-396.7	2.2
			CHANNELS 3  Xrotation Yrotation Zrotation
			JOINT left_ankle
			{
				OFFSET	-11.7	-411.3	35.4
				CHANNELS 3  Xrotation Yrotation Zrotation
				JOINT left_toes
				{
					OFFSET	0	-60	-88.6
					CHANNELS 3  Xrotation Yrotation Zrotation
					JOINT left_foot_ee
					{
						OFFSET	-22.5	-16.5	-42.2
						CHANNELS 3  Xrotation Yrotation Zrotation
						End Site
						{
							OFFSET	1	0	0
						}
					}
				}
			}
		}
	}
	JOINT right_hip
	{
		OFFSET	82.8	-127.5	0.300001
		CHANNELS 3  Xrotation Yrotation Zrotation
		JOINT right_knee
		{
			OFFSET	28.2	-396.7	2.2
			CHANNELS 3  Xrotation Yrotation Zrotation
			JOINT right_ankle
			{
				OFFSET	11.7	-411.3	35.4
				CHANNELS 3  Xrotation Yrotation Zrotation
				JOINT right_toes
				{
					OFFSET	0	-60	-88.6
					CHANNELS 3  Xrotation Yrotation Zrotation
					JOINT right_foot_ee
					{
						OFFSET	22.5	-16.5	-42.2
						CHANNELS 3  Xrotation Yrotation Zrotation
						End Site
						{
							OFFSET	1	0	0
						}
					}
				}
			}
		}
	}
}
MOTION
Frames: 6
Frame Time: 0.02
1372.05 701.618 -1475.22 -12.9590967315 26.7569969584 12.7318251276 4.68511 -0.533814 -1.25644 4.68587 -0.452788 -1.28786 4.69544 -0.282371 -1.3356 4.69328 -0.489744 -1.27426 -1.99558 4.88512 -4.57541 -1.8242 12.4421 -4.18927 -0.0 0.0 -0.0 6.22475 10.5817 11.9858 -17.9509 -28.1323 48.2513 4.64202 -66.4747 3.04293 -22.7174 -1.32735 2.56458 -4.44613 27.9668 -13.3892 -0.0 0.0 -0.0 4.25852 -13.291 -8.59748 -35.8174 65.5223 -56.5885 0.270271 7.62583 -0.0180126 -16.7117 0.878565 -1.94033 -0.434605 -23.2995 -6.78141 0.0 0.0 0.0 1.13699 5.6648 -1.6959 -10.7402 0.291074 1.62017 40.6364 1.84027 -4.91931 -4.61718 0.0 0.0 -0.0 0.0 -0.0 42.1064 27.9103 -18.6169 2.00334 0.0876654 0.294893 -3.15602 -7.10976 -0.465236 13.398 -0.0 -0.0 0.0 0.0 0.0 
1352.28388874 697.036 -1487.40453306 -13.3089386327 25.6723063177 12.520774705 4.77981 -0.363297 -1.32395 4.78075 -0.278322 -1.34438 4.78652 -0.104186 -1.36893 4.78405 -0.319055 -1.3353 -3.70768 5.249 -4.38137 -3.56959 12.9445 -3.72798 -0.0 0.0 -0.0 6.3608 13.2736 12.1317 -19.4497 -28.5511 49.2651 4.8511 -67.3826 3.23529 -23.2853 -1.37313 2.62112 -4.20076 28.7557 -11.4957 -0.0 0.0 -0.0 4.33648 -14.3631 -8.73604 -32.6023 64.0258 -57.4062 0.266454 7.51939 -0.0175096 -15.668 0.807387 -1.82726 -0.366917 -23.2959 -7.17187 0.0 0.0 0.0 1.35444 6.45831 -0.533606 -12.1396 0.30648 1.83432 40.4028 0.958461 -4.90406 -0.175824 0.0 0.0 -0.0 0.0 -0.0 43.0208 26.8945 -18.8956 -0.338361 -0.0137849 -0.0500952 -4.78034 -7.93639 -0.706756 11.0595 -0.0 -0.0 0.0 0.0 0.0 
1352.49125515 697.036 -1487.73469136 -13.2051024627 24.7358925962 12.2769469948 4.77981 -0.363297 -1.32395 4.78075 -0.278322 -1.34438 4.78652 -0.104186 -1.36893 4.78405 -0.319055 -1.3353 -3.70768 5.249 -4.38137 -3.56959 12.9445 -3.72798 -0.0 0.0 -0.0 6.3608 13.2736 12.1317 -19.4497 -28.5511 49.2651 4.8511 -67.3826 3.23529 -23.2853 -1.37313 2.62112 -4.20076 28.7557 -11.4957 -0.0 0.0 -0.0 4.33648 -14.3631 -8.73604 -32.6023 64.0258 -57.4062 0.266454 7.51939 -0.0175096 -15.668 0.807387 -1.82726 -0.366917 -23.2959 -7.17187 0.0 0.0 0.0 1.35444 6.45831 -0.533606 -12.1396 0.30648 1.83432 40.4028 0.958461 -4.90406 -0.175824 0.0 0.0 -0.0 0.0 -0.0 43.0208 26.8945 -18.8956 -0.338361 -0.0137849 -0.0500952 -4.78034 -7.93639 -0.706756 11.0595 -0.0 -0.0 0.0 0.0 0.0 
1340.17053043 698.755 -1500.08443886 -13.4552245844 25.2746549051 12.589949582 4.72311 -0.216311 -1.4705 4.7243 -0.122312 -1.48128 4.72653 0.06965 -1.48468 4.72349 -0.165676 -1.47706 -3.60668 5.53887 -4.81602 -3.44207 13.8071 -4.14983 -0.0 0.0 -0.0 6.49754 14.8481 12.2913 -20.3818 -28.3904 49.9077 4.49365 -65.7875 2.90724 -23.1601 -1.36299 2.60869 -3.86901 28.9769 -9.53327 -0.0 0.0 -0.0 4.61425 -14.8103 -9.19182 -29.8277 63.0291 -58.3634 0.278405 7.85253 -0.019108 -15.1238 0.771097 -1.7678 -0.340423 -23.1467 -7.26759 0.0 0.0 0.0 1.28838 6.35778 -0.510791 -13.4049 0.315902 2.02823 40.0859 -1.62548 -4.89721 2.21145 -0.0 -0.0 -0.0 0.0 -0.0 43.107 26.4397 -18.6771 -2.87131 -0.107527 -0.427489 -3.73558 -7.27127 -0.551282 9.96717 -0.0 -0.0 0.0 0.0 0.0 
1313.57320684 696.204 -1518.33019208 -13.7700088075 27.7711342454 12.9318482373 4.75623 -0.421051 -1.59263 4.75759 -0.318869 -1.61618 4.7655 -0.109071 -1.64372 4.76191 -0.367263 -1.60588 -1.44489 6.17184 -6.54544 -1.10273 16.3245 -6.21467 -0.0 0.0 -0.0 7.36341 16.7223 13.5965 -21.8302 -27.9693 52.3978 3.51294 -60.1016 2.03277 -23.2713 -1.372 2.61974 -3.09291 28.5258 -5.58229 -0.0 0.0 -0.0 4.0502 -13.7309 -8.25761 -26.6855 60.6794 -60.4343 0.276847 7.80912 -0.0188957 -13.5175 0.667305 -1.59033 -0.157744 -22.7521 -8.18026 0.0 0.0 0.0 1.13951 6.67226 0.0414656 -14.4894 0.32057 2.19456 38.5979 -2.21971 -4.77334 4.18863 -0.0 -0.0 -0.0 0.0 -0.0 43.1751 25.7295 -18.4248 -7.55351 -0.236509 -1.13428 -2.32623 -12.4552 -0.343031 12.4892 -0.0 -0.0 0.0 0.0 0.0 
1314.49939888 696.204 -1519.55906078 -13.622440686 26.5920241956 12.608826917 4.75623 -0.421051 -1.59263 4.75759 -0.318869 -1.61618 4.7655 -0.109071 -1.64372 4.76191 -0.367263 -1.60588 -1.44489 6.17184 -6.54544 -1.10273 16.3245 -6.21467 -0.0 0.0 -0.0 7.36341 16.7223 13.5965 -21.8302 -27.9693 52.3978 3.51294 -60.1016 2.03277 -23.2713 -1.372 2.61974 -3.09291 28.5258 -5.58229 -0.0 0.0 -0.0 4.0502 -13.7309 -8.25761 -26.6855 60.6794 -60.4343 0.276847 7.80912 -0.0188957 -13.5175 0.667305 -1.59033 -0.157744 -22.7521 -8.18026 0.0 0.0 0.0 1.13951 6.67226 0.0414656 -14.4894 0.32057 2.19456 38.5979 -2.21971 -4.77334 4.18863 -0.0 -0.0 -0.0 0.0 -0.0 43.1751 25.7295 -18.4248 -7.55351 -0.236509 -1.13428 -2.32623 -12.4552 -0.343031 12.4892 -0.0 -0.0 0.0 0.0 0.0 
